<svg width="21" height="22" viewBox="0 0 21 22" fill="none" xmlns="http://www.w3.org/2000/svg">
<path d="M16.031 15.4761L20.314 19.7581L18.899 21.1731L14.617 16.8901C13.0237 18.1674 11.042 18.862 9 18.8591C4.032 18.8591 0 14.8271 0 9.85913C0 4.89113 4.032 0.859131 9 0.859131C13.968 0.859131 18 4.89113 18 9.85913C18.0029 11.9011 17.3082 13.8829 16.031 15.4761ZM14.025 14.7341C15.2941 13.429 16.0029 11.6796 16 9.85913C16 5.99113 12.867 2.85913 9 2.85913C5.132 2.85913 2 5.99113 2 9.85913C2 13.7261 5.132 16.8591 9 16.8591C10.8204 16.862 12.5699 16.1532 13.875 14.8841L14.025 14.7341Z" fill="#CCCCCC"/>
</svg>
